<?xml version="1.0" encoding="utf-8"?>
<!-- Generator: Adobe Illustrator 24.1.0, SVG Export Plug-In . SVG Version: 6.00 Build 0)  -->
<svg version="1.0" id="Layer_1" xmlns="http://www.w3.org/2000/svg" xmlns:xlink="http://www.w3.org/1999/xlink" x="0px" y="0px"
	 viewBox="0 0 295 70" enable-background="new 0 0 295 70" xml:space="preserve">
<linearGradient id="SVGID_1_" gradientUnits="userSpaceOnUse" x1="4.8844" y1="41.1349" x2="46.7503" y2="50.8004" gradientTransform="matrix(1 0 0 -1 0 70)">
	<stop  offset="0.7" style="stop-color:#043EF8"/>
	<stop  offset="0.7526" style="stop-color:#053EF4"/>
	<stop  offset="0.8072" style="stop-color:#083EE7"/>
	<stop  offset="0.8626" style="stop-color:#0E3FD3"/>
	<stop  offset="0.9186" style="stop-color:#163FB6"/>
	<stop  offset="0.9746" style="stop-color:#204091"/>
	<stop  offset="0.999" style="stop-color:#25407E"/>
	<stop  offset="1" style="stop-color:#26407D"/>
</linearGradient>
<path fill="url(#SVGID_1_)" d="M46.5,40.8c1-0.6,1-2,0-2.6l-11.1-6.6l-5-3c-0.1-0.1-0.2-0.1-0.4-0.2c-0.9-0.2-1.9,0.4-1.9,1.4v17.4
	c0,0.5-0.3,1-0.8,1.3l-10.5,6.1c-1,0.6-2.2-0.1-2.2-1.3V19.4L3.3,12.7C0.1,10.8-1,6.6,0.9,3.4S7-1,10.3,0.9L42,19.7l2.1,1.3
	C49.5,24.4,52.1,37.5,46.5,40.8"/>
<g>
	<polygon fill="#444444" points="90.1,31.9 83.3,31.9 83.3,27.9 101.8,27.9 101.8,31.9 95,31.9 95,49.1 90.1,49.1 	"/>
	<path fill="#444444" d="M118,49.1l-4.1-5.9h-0.2h-4.3v5.9h-4.9V27.9h9.2c1.9,0,3.5,0.3,4.9,0.9s2.5,1.5,3.2,2.7s1.1,2.5,1.1,4.1
		s-0.4,2.9-1.1,4.1c-0.8,1.1-1.8,2-3.2,2.6l4.8,6.8C123.4,49.1,118,49.1,118,49.1z M116.7,32.9c-0.8-0.6-1.9-1-3.4-1h-4v7.4h4
		c1.5,0,2.6-0.3,3.4-1c0.8-0.6,1.2-1.6,1.2-2.7C117.9,34.4,117.5,33.5,116.7,32.9"/>
	<path fill="#444444" d="M131.1,48.1c-1.8-0.9-3.2-2.3-4.2-3.9c-1-1.7-1.5-3.5-1.5-5.6s0.5-4,1.5-5.6c1-1.7,2.4-3,4.2-3.9
		c1.8-1,3.8-1.4,6-1.4s4.2,0.5,5.9,1.4c1.8,0.9,3.1,2.3,4.2,3.9c1,1.7,1.5,3.5,1.5,5.6s-0.5,4-1.5,5.6c-1,1.7-2.4,3-4.2,3.9
		s-3.7,1.4-5.9,1.4C134.8,49.5,132.8,49,131.1,48.1 M140.4,44.4c1-0.6,1.8-1.4,2.4-2.4c0.6-1,0.9-2.2,0.9-3.5s-0.3-2.5-0.9-3.5
		c-0.6-1-1.4-1.8-2.4-2.4c-1-0.6-2.1-0.9-3.4-0.9s-2.4,0.3-3.4,0.9c-1,0.6-1.8,1.4-2.4,2.4c-0.6,1-0.9,2.2-0.9,3.5s0.3,2.5,0.9,3.5
		c0.6,1,1.4,1.8,2.4,2.4c1,0.6,2.1,0.9,3.4,0.9S139.4,45,140.4,44.4"/>
	<path fill="#444444" d="M154.7,47c-1.7-1.7-2.5-4.1-2.5-7.2V27.9h4.9v11.7c0,3.8,1.6,5.7,4.7,5.7c1.5,0,2.7-0.5,3.5-1.4
		s1.2-2.4,1.2-4.3V27.9h4.9v11.9c0,3.1-0.8,5.5-2.5,7.2s-4.1,2.5-7.1,2.5C158.7,49.5,156.4,48.7,154.7,47"/>
	<path fill="#444444" d="M177.4,27.9h8.4c2.2,0,4.2,0.5,5.9,1.4s3,2.2,4,3.8c0.9,1.6,1.4,3.4,1.4,5.5c0,2-0.5,3.9-1.4,5.5
		s-2.3,2.9-4,3.8c-1.7,0.9-3.7,1.4-5.9,1.4h-8.4V27.9z M185.7,47.7c2,0,3.7-0.4,5.2-1.2s2.6-1.9,3.5-3.3c0.8-1.4,1.2-3,1.2-4.8
		s-0.4-3.4-1.2-4.8c-0.8-1.4-2-2.5-3.5-3.3s-3.2-1.2-5.2-1.2H179v18.4h6.7V47.7z"/>
	<rect x="202.5" y="27.9" fill="#444444" width="1.5" height="21.2"/>
	<path fill="#444444" d="M226.6,38.6h1.5v7.9c-0.9,0.9-2.1,1.6-3.4,2c-1.3,0.5-2.7,0.7-4.2,0.7c-2.1,0-4-0.5-5.7-1.4s-3-2.2-4-3.9
		c-1-1.6-1.4-3.5-1.4-5.5s0.5-3.9,1.4-5.5c1-1.6,2.3-2.9,4-3.9c1.7-0.9,3.6-1.4,5.7-1.4c1.6,0,3,0.2,4.3,0.7s2.4,1.2,3.4,2.2l-1,1
		c-0.9-0.9-1.9-1.5-3-1.9s-2.3-0.6-3.7-0.6c-1.8,0-3.5,0.4-4.9,1.2c-1.5,0.8-2.6,1.9-3.4,3.4c-0.8,1.4-1.2,3-1.2,4.8
		c0,1.7,0.4,3.3,1.3,4.7c0.8,1.4,2,2.5,3.4,3.4c1.5,0.8,3.1,1.2,4.9,1.2c2.4,0,4.4-0.6,6-1.9L226.6,38.6L226.6,38.6z"/>
	<rect x="234.9" y="27.9" fill="#444444" width="1.5" height="21.2"/>
	<polygon fill="#444444" points="247.9,29.3 240.2,29.3 240.2,27.9 257.1,27.9 257.1,29.3 249.4,29.3 249.4,49.1 247.9,49.1 	"/>
	<path fill="#444444" d="M273,43.2h-12.3l-2.7,6h-1.7l9.8-21.2h1.5l9.8,21.2h-1.7L273,43.2z M272.4,41.9l-5.6-12.3l-5.6,12.3H272.4z
		"/>
	<polygon fill="#444444" points="281.2,27.9 282.8,27.9 282.8,47.7 295,47.7 295,49.1 281.2,49.1 	"/>
</g>
<linearGradient id="SVGID_2_" gradientUnits="userSpaceOnUse" x1="14.5861" y1="24.5256" x2="67.0388" y2="24.5256" gradientTransform="matrix(1 0 0 -1 0 70)">
	<stop  offset="0.3" style="stop-color:#043EF8"/>
	<stop  offset="0.419" style="stop-color:#165BFA"/>
	<stop  offset="0.567" style="stop-color:#2778FC"/>
	<stop  offset="0.715" style="stop-color:#348CFE"/>
	<stop  offset="0.86" style="stop-color:#3B99FF"/>
	<stop  offset="1" style="stop-color:#3E9DFF"/>
</linearGradient>
<path fill="url(#SVGID_2_)" d="M46.4,40.6L18.1,57.3c-3.1,1.8-4.5,5.9-2.8,9.1c1.2,2.3,3.5,3.5,5.9,3.5c1.2,0,2.3-0.3,3.4-0.9
	L63,46.6c3.5-2.1,5.2-6.6,3.2-10.8c-0.7-1.5-2-2.7-3.4-3.6L44,20.9C49.3,24.2,51.9,37.3,46.4,40.6"/>
</svg>
